<svg width="1440" height="742" viewBox="0 0 1440 742" fill="none" xmlns="http://www.w3.org/2000/svg">
<g opacity="0.12">
<mask id="mask0_1_578" style="mask-type:alpha" maskUnits="userSpaceOnUse" x="0" y="0" width="1440" height="724">
<rect width="1440" height="724" rx="6" fill="#274084"/>
</mask>
<g mask="url(#mask0_1_578)">
<g opacity="0.25" clip-path="url(#clip0_1_578)">
<path d="M755 484.308L871.536 352.916L988.072 484.308L755 484.308Z" fill="#0DAAC7"/>
<path d="M871.536 615.658L988.072 484.309L1104.61 615.658L871.536 615.658Z" fill="#0DAAC7"/>
<path d="M871.536 747.047L1104.61 747.047L988.072 615.655L871.536 747.047Z" fill="#045282"/>
<path d="M1338.07 615.156L1105 615.156L1221.54 746.548L1338.07 615.156Z" fill="#045282" fill-opacity="0.45"/>
<path d="M988.072 484.308L1104.61 352.916L1221.14 484.308L988.072 484.308Z" fill="#087EA4"/>
<path d="M1205 352.917L1321.54 221.568L1438.12 352.917L1205 352.917Z" fill="#0DAAC7"/>
<path d="M1104.61 615.658L1221.14 484.309L1337.73 615.658L1104.61 615.658Z" fill="#0B94B6"/>
<path d="M1162 507.216L1278.59 375.824L1395.12 507.216L1162 507.216Z" fill="#066893"/>
<path d="M1337.73 615.658L1454.27 484.309L1570.8 615.658L1337.73 615.658Z" fill="#0FC0D8"/>
<path d="M1337.73 615.658L1570.8 615.658L1454.27 747.05L1337.73 615.658Z" fill="#087EA4"/>
</g>
<g opacity="0.25" clip-path="url(#clip1_1_578)">
<path d="M-167.856 294.528L-51.2689 425.92L65.2672 294.528L-167.856 294.528Z" fill="#066893"/>
<path d="M-167.856 294.527L65.2671 294.527L-51.269 163.178L-167.856 294.527Z" fill="#087EA4"/>
<path d="M181.983 425.975L-51.0891 425.975L65.4469 557.366L181.983 425.975Z" fill="#0FC0D8"/>
<path d="M-51.269 163.178L65.267 294.527L181.803 163.178L-51.269 163.178Z" fill="#0FC0D8"/>
<path d="M-51.2689 163.178L181.803 163.178L65.2672 31.7862L-51.2689 163.178Z" fill="#087EA4"/>
<path d="M65.2672 294.526L181.803 425.918L298.339 294.526L65.2672 294.526Z" fill="#087EA4"/>
</g>
<path d="M561.979 524.646L795.051 524.646L678.515 671.416L561.979 524.646Z" fill="#066893" fill-opacity="0.15"/>
<path d="M367.072 700.225L134 700.225L250.536 553.455L367.072 700.225Z" fill="#066893" fill-opacity="0.15"/>
</g>
</g>
<defs>
<clipPath id="clip0_1_578">
<rect width="525.48" height="932.339" fill="white" transform="matrix(5.16698e-08 1 1 -3.69788e-08 755 221.568)"/>
</clipPath>
<clipPath id="clip1_1_578">
<rect width="525.48" height="932.339" fill="white" transform="translate(-634 557.268) rotate(-90)"/>
</clipPath>
</defs>
</svg>
