<svg width="725" height="550" viewBox="0 0 725 550" fill="none" xmlns="http://www.w3.org/2000/svg">
<g opacity="0.45" clip-path="url(#clip0_1_353)">
<path opacity="0.25" d="M-0.000107361 256.096L121.536 402.668L243.071 256.096L-0.000107361 256.096Z" fill="white"/>
<path opacity="0.25" d="M121.536 109.572L243.071 256.096L364.607 109.572L121.536 109.572Z" fill="white"/>
<path opacity="0.25" d="M608.087 110.129L365.016 110.129L486.552 -36.443L608.087 110.129Z" fill="white"/>
<path d="M486.143 256.701L364.607 110.129L243.071 256.701L486.143 256.701Z" fill="white"/>
<path d="M469.306 402.667L590.842 549.191L712.43 402.667L469.306 402.667Z" fill="white"/>
<path opacity="0.25" d="M364.607 109.572L486.143 256.096L607.731 109.572L364.607 109.572Z" fill="white"/>
<path opacity="0.25" d="M469.306 239.928L590.895 386.5L712.431 239.928L469.306 239.928Z" fill="white"/>
<path opacity="0.45" d="M607.732 109.572L729.267 256.096L850.803 109.572L607.732 109.572Z" fill="white"/>
<path d="M607.732 109.57L850.803 109.57L729.267 -37.0016L607.732 109.57Z" fill="white"/>
</g>
<defs>
<clipPath id="clip0_1_353">
<rect width="586.192" height="972.339" fill="white" transform="translate(-0.00012207 549.191) rotate(-90)"/>
</clipPath>
</defs>
</svg>
