<svg width="107" height="40" viewBox="0 0 107 40" fill="none" xmlns="http://www.w3.org/2000/svg">
<g clip-path="url(#clip0_37_18)">
<path d="M15.8351 33.7585H12.8583C12.7923 33.7585 12.7376 33.8125 12.7376 33.8775V39.5814C12.7376 39.6464 12.7923 39.7003 12.8583 39.7003H15.8351C15.9011 39.7003 15.9558 39.6464 15.9558 39.5814V38.9818C15.9558 38.9168 15.9011 38.8628 15.8351 38.8628H13.6162V36.8865H15.7675C15.8335 36.8865 15.8882 36.8325 15.8882 36.7675V36.1695C15.8882 36.1045 15.8335 36.0506 15.7675 36.0506H13.6162V34.596H15.8351C15.9011 34.596 15.9558 34.5421 15.9558 34.4771V33.8775C15.9558 33.8125 15.9011 33.7585 15.8351 33.7585Z" fill="url(#paint0_linear_37_18)"/>
<path d="M22.109 38.8644H20.6463V33.8775C20.6463 33.8125 20.5916 33.7585 20.5256 33.7585H19.8884C19.8224 33.7585 19.7677 33.8125 19.7677 33.8775V39.5814C19.7677 39.6464 19.8224 39.7003 19.8884 39.7003H22.109C22.1749 39.7003 22.2296 39.6464 22.2296 39.5814V38.9818C22.2296 38.9168 22.1749 38.8628 22.109 38.8628V38.8644Z" fill="url(#paint1_linear_37_18)"/>
<path d="M28.0723 38.8644H26.6096V33.8775C26.6096 33.8125 26.5549 33.7585 26.4889 33.7585H25.8533C25.7874 33.7585 25.7327 33.8125 25.7327 33.8775V39.5814C25.7327 39.6464 25.7874 39.7003 25.8533 39.7003H28.0739C28.1399 39.7003 28.1946 39.6464 28.1946 39.5814V38.9818C28.1946 38.9168 28.1399 38.8628 28.0739 38.8628L28.0723 38.8644Z" fill="url(#paint2_linear_37_18)"/>
<path d="M44.2662 33.7585H41.2878C41.2218 33.7585 41.1671 33.8125 41.1671 33.8775V39.5814C41.1671 39.6464 41.2218 39.7003 41.2878 39.7003H44.2662C44.3322 39.7003 44.3869 39.6464 44.3869 39.5814V38.9818C44.3869 38.9168 44.3322 38.8628 44.2662 38.8628H42.0457V36.8865H44.197C44.263 36.8865 44.3177 36.8325 44.3177 36.7675V36.1695C44.3177 36.1045 44.263 36.0506 44.197 36.0506H42.0457V34.596H44.2662C44.3322 34.596 44.3869 34.5421 44.3869 34.4771V33.8775C44.3869 33.8125 44.3322 33.7585 44.2662 33.7585Z" fill="url(#paint3_linear_37_18)"/>
<path d="M78.3646 38.8644H76.9019V33.8775C76.9019 33.8125 76.8472 33.7585 76.7812 33.7585H76.144C76.078 33.7585 76.0233 33.8125 76.0233 33.8775V39.5814C76.0233 39.6464 76.078 39.7003 76.144 39.7003H78.3646C78.4305 39.7003 78.4852 39.6464 78.4852 39.5814V38.9818C78.4852 38.9168 78.4305 38.8628 78.3646 38.8628V38.8644Z" fill="url(#paint4_linear_37_18)"/>
<path d="M82.7461 33.76H82.1089C82.0423 33.76 81.9882 33.8133 81.9882 33.879V39.5828C81.9882 39.6485 82.0423 39.7018 82.1089 39.7018H82.7461C82.8128 39.7018 82.8668 39.6485 82.8668 39.5828V33.879C82.8668 33.8133 82.8128 33.76 82.7461 33.76Z" fill="url(#paint5_linear_37_18)"/>
<path d="M97.2183 33.76H96.5811C96.5144 33.76 96.4604 33.8133 96.4604 33.879V39.5828C96.4604 39.6485 96.5144 39.7018 96.5811 39.7018H97.2183C97.285 39.7018 97.339 39.6485 97.339 39.5828V33.879C97.339 33.8133 97.285 33.76 97.2183 33.76Z" fill="url(#paint6_linear_37_18)"/>
<path d="M50.355 36.2504L49.8047 36.0109C49.5939 35.9189 49.3944 35.8316 49.2367 35.6746C49.1015 35.5493 49.0597 35.4494 49.0597 35.2654C49.0597 34.8101 49.3992 34.504 49.9029 34.504C50.1877 34.504 50.3711 34.5976 50.4725 34.6753C50.5803 34.761 50.7026 34.9164 50.7766 35.0623C50.7927 35.0925 50.8201 35.1163 50.8539 35.1242C50.8876 35.1321 50.923 35.1274 50.952 35.1083L51.4589 34.7736C51.5104 34.7403 51.5265 34.6737 51.4991 34.6198C51.3559 34.3454 51.1435 34.1043 50.9005 33.9425C50.6109 33.7522 50.3068 33.6665 49.9109 33.6665C48.8924 33.6665 48.1811 34.32 48.1811 35.2558C48.1811 35.6778 48.3099 35.9823 48.614 36.2742C48.865 36.5153 49.1369 36.6406 49.3574 36.7421L49.9302 37.007C50.2118 37.1339 50.4339 37.2354 50.5867 37.3797C50.7541 37.532 50.8313 37.716 50.8313 37.9587C50.8313 38.4615 50.5127 38.9691 49.7999 38.9691C49.4845 38.9691 49.2544 38.8818 49.0613 38.6899C48.8988 38.5186 48.7846 38.2791 48.7492 38.0285C48.7443 37.9952 48.725 37.9634 48.6961 37.946C48.6671 37.927 48.6317 37.9222 48.5979 37.9317L47.9784 38.103C47.9173 38.1205 47.8786 38.1823 47.8931 38.2442C47.9897 38.6693 48.1956 39.0579 48.4595 39.3101C48.8023 39.6432 49.2383 39.805 49.7919 39.805C50.9134 39.805 51.7276 39.0182 51.7276 37.9349C51.7276 37.4749 51.586 37.1196 51.2803 36.8166C51.0357 36.5771 50.7348 36.4185 50.3566 36.2535L50.355 36.2504Z" fill="url(#paint7_linear_37_18)"/>
<path d="M57.5123 36.2504L56.9588 36.0093C56.7496 35.9173 56.5517 35.83 56.394 35.673C56.2588 35.5477 56.217 35.4478 56.217 35.2638C56.217 34.8085 56.5565 34.5024 57.0601 34.5024C57.3449 34.5024 57.5284 34.596 57.6298 34.6737C57.7376 34.7594 57.8583 34.9116 57.9339 35.0623C57.95 35.0925 57.9773 35.1147 58.0111 35.1242C58.0449 35.1337 58.0803 35.1274 58.1093 35.1083L58.6161 34.7736C58.6676 34.7403 58.6837 34.6737 58.6564 34.6198C58.5132 34.3422 58.2991 34.1027 58.0562 33.9425C57.7681 33.7506 57.464 33.6665 57.0682 33.6665C56.0496 33.6665 55.3384 34.32 55.3384 35.2558C55.3384 35.6778 55.4671 35.9823 55.7713 36.2742C56.0239 36.5168 56.2974 36.6422 56.5179 36.7437L57.0875 37.0054C57.3691 37.1339 57.5927 37.2354 57.744 37.3781C57.9113 37.5304 57.9902 37.7144 57.9902 37.9571C57.9902 38.4599 57.6716 38.9675 56.9572 38.9675C56.6418 38.9675 56.4133 38.8802 56.2202 38.6883C56.0577 38.5202 55.945 38.2791 55.908 38.0269C55.9032 37.9936 55.8839 37.9634 55.8549 37.9444C55.826 37.9254 55.7906 37.9206 55.7568 37.9301L55.1357 38.1014C55.0745 38.1189 55.0359 38.1807 55.0504 38.2426C55.1469 38.6677 55.3529 39.0563 55.6168 39.3085C55.9595 39.6416 56.3956 39.8034 56.9491 39.8034C58.0723 39.8034 58.8865 39.0166 58.8865 37.9333C58.8865 37.4749 58.7433 37.118 58.4375 36.815C58.1946 36.5755 57.8936 36.4169 57.5139 36.252L57.5123 36.2504Z" fill="url(#paint8_linear_37_18)"/>
<path d="M70.3963 33.6648C68.6151 33.6648 67.2731 34.9908 67.2731 36.7515C67.2731 38.5121 68.6006 39.8017 70.3625 39.8017C70.7326 39.8017 71.4583 39.7271 72.1615 39.2243C72.1937 39.2021 72.2114 39.1656 72.2114 39.1276V38.3408C72.2114 38.2932 72.1824 38.2488 72.1358 38.2314C72.0907 38.2139 72.0392 38.2234 72.0038 38.2583C71.8992 38.3646 71.6772 38.5629 71.3714 38.7152C71.0528 38.8785 70.694 38.9674 70.3609 38.9674C68.8484 38.9674 68.1677 37.6762 68.1677 36.7594C68.1677 35.4936 69.1268 34.5007 70.3529 34.5007C70.6586 34.5007 70.9917 34.5753 71.291 34.7117C71.5307 34.8227 71.7978 35.0115 72.0054 35.2177C72.0392 35.2525 72.0923 35.2621 72.1374 35.2446C72.1824 35.2256 72.2114 35.1828 72.2114 35.1352V34.3484C72.2114 34.312 72.1937 34.2771 72.1647 34.2548C71.3891 33.6664 70.6425 33.6664 70.3963 33.6664V33.6648Z" fill="url(#paint9_linear_37_18)"/>
<path d="M104.231 34.5023C104.537 34.5023 104.87 34.5768 105.169 34.7133C105.409 34.8243 105.676 35.0146 105.882 35.2192C105.915 35.2541 105.969 35.2637 106.014 35.2462C106.059 35.2272 106.088 35.1843 106.088 35.1368V34.35C106.088 34.3135 106.07 34.2786 106.041 34.2564C105.265 33.668 104.519 33.668 104.273 33.668C102.491 33.668 101.149 34.994 101.149 36.7547C101.149 38.5153 102.477 39.8049 104.239 39.8049C104.609 39.8049 105.335 39.7303 106.038 39.2275C106.07 39.2053 106.088 39.1688 106.088 39.1307V38.344C106.088 38.2948 106.059 38.252 106.012 38.233C105.967 38.2155 105.914 38.225 105.88 38.2599C105.796 38.344 105.57 38.5565 105.249 38.7167C104.932 38.8801 104.574 38.9689 104.239 38.9689C102.726 38.9689 102.046 37.6778 102.046 36.761C102.046 35.4952 103.006 34.5023 104.231 34.5023Z" fill="url(#paint10_linear_37_18)"/>
<path d="M36.9255 33.7585H36.2883C36.2224 33.7585 36.1676 33.8125 36.1676 33.8775V37.7779L31.8955 33.7919C31.8601 33.7585 31.8086 33.7506 31.7652 33.7696C31.7217 33.7887 31.6927 33.8315 31.6927 33.8791V39.583C31.6927 39.648 31.7475 39.7019 31.8134 39.7019H32.4506C32.5166 39.7019 32.5713 39.648 32.5713 39.583V35.6128L36.8419 39.6686C36.8644 39.6908 36.895 39.7019 36.9255 39.7019C36.9416 39.7019 36.9577 39.6987 36.9722 39.6924C37.0172 39.6734 37.0462 39.6305 37.0462 39.583V33.8791C37.0462 33.8141 36.9915 33.7601 36.9255 33.7601V33.7585Z" fill="url(#paint11_linear_37_18)"/>
<path d="M92.2189 33.7585H91.5817C91.5157 33.7585 91.461 33.8125 91.461 33.8775V37.7779L87.1888 33.7919C87.1534 33.7585 87.1019 33.7506 87.0585 33.7696C87.015 33.7887 86.9861 33.8315 86.9861 33.8791V39.583C86.9861 39.648 87.0408 39.7019 87.1068 39.7019H87.744C87.8099 39.7019 87.8646 39.648 87.8646 39.583V35.6207L92.1352 39.6686C92.1577 39.6908 92.1883 39.7019 92.2189 39.7019C92.2349 39.7019 92.251 39.6987 92.2655 39.6924C92.3106 39.6734 92.3395 39.6305 92.3395 39.583V33.8791C92.3395 33.8141 92.2848 33.7601 92.2189 33.7601V33.7585Z" fill="url(#paint12_linear_37_18)"/>
<path d="M9.16864 33.7585H8.46386C8.41398 33.7585 8.36892 33.7887 8.35122 33.8347L6.78879 37.816L5.19418 33.8363C5.17648 33.7903 5.13142 33.7585 5.08154 33.7585C5.03166 33.7585 4.9866 33.7887 4.9689 33.8347L3.28901 37.8096L1.88266 33.8379C1.86496 33.7903 1.8199 33.7585 1.76841 33.7585H1.06363C1.02501 33.7585 0.988 33.7776 0.965473 33.8093C0.942946 33.841 0.938118 33.8823 0.950991 33.9187L3.15384 39.9208C3.17154 39.9668 3.21499 39.9985 3.26648 40.0001C3.31636 40.0001 3.36142 39.97 3.37912 39.924L5.07028 35.9427L6.64719 39.9224C6.66489 39.9684 6.70833 40.0001 6.75822 40.0001H6.75983C6.80971 40.0001 6.85315 39.97 6.87246 39.9256L9.28128 33.9235C9.29576 33.887 9.29093 33.8458 9.2684 33.8125C9.24588 33.7792 9.20887 33.7601 9.16864 33.7601V33.7585Z" fill="url(#paint13_linear_37_18)"/>
<path d="M78.4499 16.1377H78.0057C77.9076 16.1377 77.8239 16.2075 77.8078 16.3011C77.6534 17.1703 77.1561 17.9777 76.4771 18.4614C75.7224 19.0007 74.8117 19.2862 73.7738 19.31H70.1035C70.0375 19.31 69.9764 19.3418 69.9377 19.3957C69.8412 19.5337 69.484 19.8636 69.1734 19.8636C69.0624 19.8636 68.9723 19.9524 68.9723 20.0619C68.9723 20.1713 69.0624 20.2601 69.1734 20.2601H77.9703C78.0717 20.2601 78.157 20.1856 78.1699 20.0873L78.651 16.3613C78.6574 16.3042 78.6413 16.2487 78.6027 16.2059C78.5641 16.1631 78.5094 16.1393 78.4515 16.1393L78.4499 16.1377Z" fill="url(#paint14_linear_37_18)"/>
<path d="M48.4016 20.2301V19.7875C48.4016 19.6781 48.3115 19.5892 48.2004 19.5892C47.9446 19.5892 47.5552 19.4782 47.4538 19.3386C47.3315 19.1737 47.3106 18.9976 47.3878 18.7819L49.1611 13.6046H55.3802C55.4478 13.6046 55.5106 13.5713 55.5476 13.5158C55.5846 13.4603 55.591 13.3905 55.5653 13.3286C55.4784 13.1256 55.1533 12.6545 54.0254 12.6545H49.5054L51.7034 6.20198C51.7099 6.18771 51.7131 6.17343 51.7131 6.17343C52.1475 4.90608 51.8257 4.1019 51.7887 4.01624C51.7565 3.94011 51.6777 3.88935 51.5956 3.89411C51.512 3.89728 51.4379 3.95121 51.4122 4.02893L46.4127 18.6185C46.3017 18.9246 46.1263 19.1578 45.8753 19.3323C45.6436 19.4925 45.1287 19.5908 44.7843 19.5908C44.6733 19.5908 44.5832 19.6797 44.5832 19.7891V20.2316C44.5832 20.3411 44.6733 20.4299 44.7843 20.4299H48.2004C48.3115 20.4299 48.4016 20.3411 48.4016 20.2316V20.2301Z" fill="url(#paint15_linear_37_18)"/>
<path d="M97.4259 12.6528H92.9075L95.1072 6.19393C95.1072 6.19393 95.1136 6.17648 95.1136 6.17172C95.5465 4.90437 95.2262 4.10019 95.1876 4.01453C95.1554 3.9384 95.0782 3.88764 94.9945 3.8924C94.9109 3.89557 94.8368 3.9495 94.8111 4.02722L89.8149 18.6152C89.7038 18.9213 89.5268 19.1545 89.2758 19.329C89.0521 19.4844 88.5308 19.5875 88.1848 19.5875C88.0738 19.5875 87.9837 19.6764 87.9837 19.7858V20.2283C87.9837 20.3378 88.0738 20.4266 88.1848 20.4266H91.601C91.712 20.4266 91.8021 20.3378 91.8021 20.2283V19.7858C91.8021 19.6764 91.712 19.5875 91.601 19.5875C91.3451 19.5875 90.9541 19.4765 90.8543 19.3385C90.7304 19.1704 90.7095 18.9943 90.79 18.7802L92.5632 13.6029H98.7823C98.8499 13.6029 98.9127 13.5696 98.9497 13.5141C98.9867 13.4586 98.9931 13.3888 98.9674 13.3269C98.8805 13.1239 98.5555 12.6528 97.4259 12.6528Z" fill="url(#paint16_linear_37_18)"/>
<path d="M39.1976 18.3472V1.31812H36.3028V18.3472C36.3028 18.766 36.1676 19.1102 35.8941 19.3798C35.6222 19.6511 35.2151 19.7859 34.5956 19.7859V20.2284H40.908V19.7859C40.3223 19.7859 39.8798 19.6511 39.6079 19.3798C39.3359 19.1102 39.1992 18.766 39.1992 18.3472H39.1976Z" fill="url(#paint17_linear_37_18)"/>
<path d="M61.1955 19.0119L53.9562 0.234863H51.7646L52.0236 0.677404C52.0993 0.801125 52.1588 0.959742 52.2103 1.15801C52.2602 1.32932 52.2715 1.54504 52.2457 1.80358C52.2216 2.06213 52.1765 2.40474 52.0542 2.77432L51.977 2.99956L51.9706 3.01859L52.2924 3.8545L52.4903 4.36525L53.2256 6.27658L55.5266 12.2596L56.0432 13.6015L58.0401 18.7914C58.1382 19.0389 58.1141 19.2657 57.9644 19.4751C57.8164 19.6845 57.3578 19.7876 57.1116 19.7876V20.2301H62.6051V19.7876C62.0354 19.7876 61.3918 19.529 61.1939 19.0119H61.1955Z" fill="url(#paint18_linear_37_18)"/>
<path d="M100.512 19.786V20.2285H106.007V19.786C105.436 19.786 104.794 19.5274 104.598 19.0103L97.3551 0.234863H95.1635L95.4242 0.677404C95.4982 0.801125 95.5594 0.959742 95.6092 1.15801C95.6591 1.32932 95.6704 1.54504 95.6462 1.80358C95.6205 2.06213 95.5754 2.40474 95.4532 2.77432L95.3759 2.99956L95.3695 3.01859L95.6929 3.8545L95.8876 4.36525L96.623 6.27658L98.9256 12.2596L99.4421 13.6015L101.437 18.7914C101.537 19.0389 101.513 19.2657 101.363 19.4751C101.215 19.6845 100.757 19.7876 100.511 19.7876L100.512 19.786Z" fill="url(#paint19_linear_37_18)"/>
<path d="M5.52243 1.6369C5.42267 1.39263 5.44841 1.16422 5.59645 0.954845C5.74609 0.747057 5.98263 0.640783 6.48789 0.640783V0.198242H0.992828V0.640783C1.76519 0.640783 2.20609 0.899329 2.404 1.41642L7.46461 14.5832L9.63367 20.2316H10.7134L11.6273 17.543L10.4173 14.3881L5.52243 1.6369Z" fill="url(#paint20_linear_37_18)"/>
<path d="M18.8152 0H15.362C15.251 0 15.1609 0.0888255 15.1609 0.198271V0.640812C15.1609 0.750258 15.251 0.839083 15.362 0.839083C15.8818 0.839083 16.0121 0.958046 16.1087 1.0897C16.231 1.25625 16.2519 1.43231 16.173 1.64962L11.8526 14.4199C11.394 15.776 11.7963 16.5358 11.8124 16.5675C11.8478 16.6326 11.9154 16.6722 11.9894 16.6722C11.9958 16.6722 12.0006 16.6722 12.0071 16.6722C12.0875 16.6659 12.1551 16.6119 12.1809 16.5374L17.1851 1.81458C17.2946 1.50527 17.47 1.27211 17.7226 1.09921C17.9479 0.94377 18.2214 0.839083 18.8152 0.839083C18.9262 0.839083 19.0163 0.750258 19.0163 0.640812V0.198271C19.0163 0.0888255 18.9262 0 18.8152 0Z" fill="url(#paint21_linear_37_18)"/>
<path d="M33.3694 0.950117H42.1309C42.5525 0.950117 42.995 1.01674 43.4488 1.1468C43.8961 1.27528 44.3145 1.46562 44.6926 1.71148C45.0675 1.95575 45.3942 2.25712 45.6645 2.60766C45.93 2.95186 46.0957 3.53081 46.1649 3.95749C46.1794 4.05425 46.2647 4.12563 46.3629 4.12563H46.8086C46.8665 4.12563 46.9212 4.10183 46.9598 4.05901C46.9984 4.01618 47.0162 3.95908 47.0081 3.90356L46.5238 0.176066C46.5109 0.0777238 46.4256 0.00317383 46.3242 0.00317383H29.1729C29.0715 0.00317383 28.9862 0.0777238 28.9734 0.176066L28.4906 3.90356C28.4842 3.96066 28.5003 4.01618 28.5389 4.05901C28.5775 4.10183 28.6322 4.12563 28.6902 4.12563H29.1359C29.2356 4.12563 29.3193 4.05425 29.3338 3.95749C29.4014 3.52923 29.5687 2.95028 29.8342 2.60766C30.103 2.25871 30.4296 1.95733 30.8061 1.71148C31.1843 1.46562 31.6026 1.27528 32.0516 1.1468C32.5037 1.01674 32.9462 0.950117 33.3694 0.950117Z" fill="url(#paint22_linear_37_18)"/>
<path d="M68.6939 2.07944C68.6939 1.66069 68.8291 1.31808 69.101 1.04684C69.3729 0.777194 69.7527 0.640783 70.4011 0.640783V0.198242H64.0903V0.640783C64.7098 0.640783 65.1153 0.777194 65.3888 1.04684C65.6607 1.31808 65.7959 1.66228 65.7959 2.07944V18.3472C65.7959 18.7659 65.6607 19.1101 65.3888 19.3798C65.1153 19.651 64.5086 19.7858 64.0903 19.7858V20.2284H68.6939V2.07944Z" fill="url(#paint23_linear_37_18)"/>
<path d="M26.8252 19.786C26.2524 19.786 25.8598 19.6575 25.5637 19.3974C25.266 19.1388 25.118 18.801 25.118 18.3822V2.08273C25.118 1.66398 25.266 1.32613 25.5637 1.066C25.8614 0.807452 26.2363 0.677386 26.8252 0.677386V0.196777H20.5144V0.677386C21.1033 0.677386 21.4798 0.807452 21.7775 1.066C22.0752 1.32613 22.2216 1.66557 22.2216 2.08273V18.3822C22.2216 18.801 22.0752 19.1388 21.7775 19.3974C21.4798 19.6559 21.0888 19.786 20.5144 19.786V20.2301H26.8252V19.786Z" fill="url(#paint24_linear_37_18)"/>
<path d="M80.1667 0.677386C80.7557 0.677386 81.1322 0.807452 81.4283 1.066C81.726 1.32613 81.874 1.66557 81.874 2.08273V18.3822C81.874 18.801 81.726 19.1388 81.4283 19.3974C81.1306 19.6559 80.7396 19.786 80.1667 19.786V20.2301H86.4776V19.786C85.9032 19.786 85.5122 19.6575 85.2145 19.3974C84.9168 19.1388 84.7704 18.801 84.7704 18.3822V2.08273C84.7704 1.66398 84.9168 1.32613 85.2145 1.066C85.5122 0.807452 85.8871 0.677386 86.4776 0.677386V0.196777H80.1667V0.677386Z" fill="url(#paint25_linear_37_18)"/>
<path d="M3.05176e-05 27.0679C3.05176e-05 27.3803 0.255877 27.6341 0.56965 27.6341H106.429C106.746 27.6341 107 27.3803 107 27.0679H3.05176e-05Z" fill="url(#paint26_linear_37_18)"/>
</g>
<defs>
<linearGradient id="paint0_linear_37_18" x1="12.7376" y1="33.7585" x2="15.9558" y2="33.7585" gradientUnits="userSpaceOnUse">
<stop stop-color="#CEAE98"/>
<stop offset="0.324234" stop-color="#E2CAB6"/>
<stop offset="0.635417" stop-color="#D8BCAB"/>
<stop offset="0.916667" stop-color="#C08E7B"/>
</linearGradient>
<linearGradient id="paint1_linear_37_18" x1="19.7677" y1="33.7585" x2="22.2296" y2="33.7585" gradientUnits="userSpaceOnUse">
<stop stop-color="#CEAE98"/>
<stop offset="0.324234" stop-color="#E2CAB6"/>
<stop offset="0.635417" stop-color="#D8BCAB"/>
<stop offset="0.916667" stop-color="#C08E7B"/>
</linearGradient>
<linearGradient id="paint2_linear_37_18" x1="25.7327" y1="33.7585" x2="28.1946" y2="33.7585" gradientUnits="userSpaceOnUse">
<stop stop-color="#CEAE98"/>
<stop offset="0.324234" stop-color="#E2CAB6"/>
<stop offset="0.635417" stop-color="#D8BCAB"/>
<stop offset="0.916667" stop-color="#C08E7B"/>
</linearGradient>
<linearGradient id="paint3_linear_37_18" x1="41.1671" y1="33.7585" x2="44.3869" y2="33.7585" gradientUnits="userSpaceOnUse">
<stop stop-color="#CEAE98"/>
<stop offset="0.324234" stop-color="#E2CAB6"/>
<stop offset="0.635417" stop-color="#D8BCAB"/>
<stop offset="0.916667" stop-color="#C08E7B"/>
</linearGradient>
<linearGradient id="paint4_linear_37_18" x1="76.0233" y1="33.7585" x2="78.4852" y2="33.7585" gradientUnits="userSpaceOnUse">
<stop stop-color="#CEAE98"/>
<stop offset="0.324234" stop-color="#E2CAB6"/>
<stop offset="0.635417" stop-color="#D8BCAB"/>
<stop offset="0.916667" stop-color="#C08E7B"/>
</linearGradient>
<linearGradient id="paint5_linear_37_18" x1="81.9882" y1="33.76" x2="85.0001" y2="36.5" gradientUnits="userSpaceOnUse">
<stop stop-color="#CEAE98"/>
<stop offset="0.324234" stop-color="#E2CAB6"/>
<stop offset="0.635417" stop-color="#D8BCAB"/>
<stop offset="0.916667" stop-color="#C08E7B"/>
</linearGradient>
<linearGradient id="paint6_linear_37_18" x1="96.4604" y1="33.76" x2="98.5" y2="39.5" gradientUnits="userSpaceOnUse">
<stop stop-color="#CEAE98"/>
<stop offset="0.324234" stop-color="#E2CAB6"/>
<stop offset="0.635417" stop-color="#D8BCAB"/>
<stop offset="0.916667" stop-color="#C08E7B"/>
</linearGradient>
<linearGradient id="paint7_linear_37_18" x1="47.8901" y1="33.6665" x2="51.7276" y2="33.6665" gradientUnits="userSpaceOnUse">
<stop stop-color="#CEAE98"/>
<stop offset="0.324234" stop-color="#E2CAB6"/>
<stop offset="0.635417" stop-color="#D8BCAB"/>
<stop offset="0.916667" stop-color="#C08E7B"/>
</linearGradient>
<linearGradient id="paint8_linear_37_18" x1="55.0473" y1="33.6665" x2="58.8865" y2="33.6665" gradientUnits="userSpaceOnUse">
<stop stop-color="#CEAE98"/>
<stop offset="0.324234" stop-color="#E2CAB6"/>
<stop offset="0.635417" stop-color="#D8BCAB"/>
<stop offset="0.916667" stop-color="#C08E7B"/>
</linearGradient>
<linearGradient id="paint9_linear_37_18" x1="67.2731" y1="33.6648" x2="72.2114" y2="33.6648" gradientUnits="userSpaceOnUse">
<stop stop-color="#CEAE98"/>
<stop offset="0.324234" stop-color="#E2CAB6"/>
<stop offset="0.635417" stop-color="#D8BCAB"/>
<stop offset="0.916667" stop-color="#C08E7B"/>
</linearGradient>
<linearGradient id="paint10_linear_37_18" x1="101.149" y1="33.668" x2="106.088" y2="33.668" gradientUnits="userSpaceOnUse">
<stop stop-color="#CEAE98"/>
<stop offset="0.324234" stop-color="#E2CAB6"/>
<stop offset="0.635417" stop-color="#D8BCAB"/>
<stop offset="0.916667" stop-color="#C08E7B"/>
</linearGradient>
<linearGradient id="paint11_linear_37_18" x1="31.6927" y1="33.7585" x2="37.0462" y2="33.7585" gradientUnits="userSpaceOnUse">
<stop stop-color="#CEAE98"/>
<stop offset="0.324234" stop-color="#E2CAB6"/>
<stop offset="0.635417" stop-color="#D8BCAB"/>
<stop offset="0.916667" stop-color="#C08E7B"/>
</linearGradient>
<linearGradient id="paint12_linear_37_18" x1="86.9861" y1="33.7585" x2="92.3395" y2="33.7585" gradientUnits="userSpaceOnUse">
<stop stop-color="#CEAE98"/>
<stop offset="0.324234" stop-color="#E2CAB6"/>
<stop offset="0.635417" stop-color="#D8BCAB"/>
<stop offset="0.916667" stop-color="#C08E7B"/>
</linearGradient>
<linearGradient id="paint13_linear_37_18" x1="0.94397" y1="33.7585" x2="9.28951" y2="33.7585" gradientUnits="userSpaceOnUse">
<stop stop-color="#CEAE98"/>
<stop offset="0.324234" stop-color="#E2CAB6"/>
<stop offset="0.635417" stop-color="#D8BCAB"/>
<stop offset="0.916667" stop-color="#C08E7B"/>
</linearGradient>
<linearGradient id="paint14_linear_37_18" x1="68.9723" y1="16.1377" x2="78.6524" y2="16.1377" gradientUnits="userSpaceOnUse">
<stop stop-color="#CEAE98"/>
<stop offset="0.324234" stop-color="#E2CAB6"/>
<stop offset="0.635417" stop-color="#D8BCAB"/>
<stop offset="0.916667" stop-color="#C08E7B"/>
</linearGradient>
<linearGradient id="paint15_linear_37_18" x1="44.5832" y1="3.8938" x2="55.5808" y2="3.8938" gradientUnits="userSpaceOnUse">
<stop stop-color="#CEAE98"/>
<stop offset="0.324234" stop-color="#E2CAB6"/>
<stop offset="0.635417" stop-color="#D8BCAB"/>
<stop offset="0.916667" stop-color="#C08E7B"/>
</linearGradient>
<linearGradient id="paint16_linear_37_18" x1="87.9837" y1="3.89209" x2="98.9829" y2="3.89209" gradientUnits="userSpaceOnUse">
<stop stop-color="#CEAE98"/>
<stop offset="0.324234" stop-color="#E2CAB6"/>
<stop offset="0.635417" stop-color="#D8BCAB"/>
<stop offset="0.916667" stop-color="#C08E7B"/>
</linearGradient>
<linearGradient id="paint17_linear_37_18" x1="34.5956" y1="1.31812" x2="40.908" y2="1.31812" gradientUnits="userSpaceOnUse">
<stop stop-color="#CEAE98"/>
<stop offset="0.324234" stop-color="#E2CAB6"/>
<stop offset="0.635417" stop-color="#D8BCAB"/>
<stop offset="0.916667" stop-color="#C08E7B"/>
</linearGradient>
<linearGradient id="paint18_linear_37_18" x1="51.7646" y1="0.234863" x2="62.6051" y2="0.234863" gradientUnits="userSpaceOnUse">
<stop stop-color="#CEAE98"/>
<stop offset="0.324234" stop-color="#E2CAB6"/>
<stop offset="0.635417" stop-color="#D8BCAB"/>
<stop offset="0.916667" stop-color="#C08E7B"/>
</linearGradient>
<linearGradient id="paint19_linear_37_18" x1="95.1635" y1="0.234863" x2="106.007" y2="0.234863" gradientUnits="userSpaceOnUse">
<stop stop-color="#CEAE98"/>
<stop offset="0.324234" stop-color="#E2CAB6"/>
<stop offset="0.635417" stop-color="#D8BCAB"/>
<stop offset="0.916667" stop-color="#C08E7B"/>
</linearGradient>
<linearGradient id="paint20_linear_37_18" x1="0.992828" y1="0.198242" x2="11.6273" y2="0.198242" gradientUnits="userSpaceOnUse">
<stop stop-color="#CEAE98"/>
<stop offset="0.324234" stop-color="#E2CAB6"/>
<stop offset="0.635417" stop-color="#D8BCAB"/>
<stop offset="0.916667" stop-color="#C08E7B"/>
</linearGradient>
<linearGradient id="paint21_linear_37_18" x1="11.6339" y1="0" x2="19.0163" y2="0" gradientUnits="userSpaceOnUse">
<stop stop-color="#CEAE98"/>
<stop offset="0.324234" stop-color="#E2CAB6"/>
<stop offset="0.635417" stop-color="#D8BCAB"/>
<stop offset="0.916667" stop-color="#C08E7B"/>
</linearGradient>
<linearGradient id="paint22_linear_37_18" x1="28.4893" y1="0.00317383" x2="47.01" y2="0.00317383" gradientUnits="userSpaceOnUse">
<stop stop-color="#CEAE98"/>
<stop offset="0.324234" stop-color="#E2CAB6"/>
<stop offset="0.635417" stop-color="#D8BCAB"/>
<stop offset="0.916667" stop-color="#C08E7B"/>
</linearGradient>
<linearGradient id="paint23_linear_37_18" x1="64.0903" y1="0.198242" x2="70.4011" y2="0.198242" gradientUnits="userSpaceOnUse">
<stop stop-color="#CEAE98"/>
<stop offset="0.324234" stop-color="#E2CAB6"/>
<stop offset="0.635417" stop-color="#D8BCAB"/>
<stop offset="0.916667" stop-color="#C08E7B"/>
</linearGradient>
<linearGradient id="paint24_linear_37_18" x1="20.5144" y1="0.196777" x2="26.8252" y2="0.196777" gradientUnits="userSpaceOnUse">
<stop stop-color="#CEAE98"/>
<stop offset="0.324234" stop-color="#E2CAB6"/>
<stop offset="0.635417" stop-color="#D8BCAB"/>
<stop offset="0.916667" stop-color="#C08E7B"/>
</linearGradient>
<linearGradient id="paint25_linear_37_18" x1="80.1667" y1="0.196777" x2="86.4776" y2="0.196777" gradientUnits="userSpaceOnUse">
<stop stop-color="#CEAE98"/>
<stop offset="0.324234" stop-color="#E2CAB6"/>
<stop offset="0.635417" stop-color="#D8BCAB"/>
<stop offset="0.916667" stop-color="#C08E7B"/>
</linearGradient>
<linearGradient id="paint26_linear_37_18" x1="3.05176e-05" y1="27.0679" x2="107" y2="27.0679" gradientUnits="userSpaceOnUse">
<stop stop-color="#CEAE98"/>
<stop offset="0.324234" stop-color="#E2CAB6"/>
<stop offset="0.635417" stop-color="#D8BCAB"/>
<stop offset="0.916667" stop-color="#C08E7B"/>
</linearGradient>
<clipPath id="clip0_37_18">
<rect width="107" height="40" fill="white"/>
</clipPath>
</defs>
</svg>
