<svg width="39" height="45" viewBox="0 0 39 45" fill="none" xmlns="http://www.w3.org/2000/svg">
<g clip-path="url(#clip0_1_468)">
<path d="M19.8538 4.12004C19.5903 5.71215 18.6721 6.40531 17.0763 6.24904C15.87 6.13145 15.1057 5.38413 15.0566 4.22989C15.0271 3.51661 15.0271 2.80024 15.0566 2.08696C15.1057 0.861545 15.9699 0.072451 17.2416 0.0476951C18.8194 0.0167502 19.6852 0.669686 19.7916 2.01269C19.8162 2.32833 19.9389 2.42116 20.2483 2.49234C23.0176 3.12825 24.7853 5.2325 24.8229 7.93244C24.8426 9.41934 24.836 10.9062 24.8213 12.3931C24.818 12.732 24.8868 12.9393 25.2419 13.1234C26.1667 13.6015 26.5497 14.3891 26.5415 15.3824C26.5006 20.8426 22.2451 25.5555 16.4118 26.5798C16.3332 26.5937 16.2547 26.6108 16.1875 26.6247C16.1581 26.6711 16.1204 26.7036 16.1204 26.7361C16.1466 29.3788 15.9879 32.0385 16.2563 34.658C16.5738 37.7401 19.5854 40.0702 22.8556 40.1321C26.2747 40.1971 29.2061 37.9985 29.8952 34.8823C29.977 34.5125 29.8313 34.381 29.54 34.2093C27.4499 32.9808 26.3697 30.7094 26.8018 28.5015C27.2469 26.2239 29.0506 24.474 31.4255 24.0129C34.2292 23.4699 37.0084 24.8825 38.0739 27.3921C39.1443 29.9141 38.1476 32.7843 35.681 34.2046C35.3029 34.4228 35.1229 34.6409 35.0623 35.085C34.2865 40.6566 29.2176 44.9224 23.327 44.9982C17.2498 45.0755 12.0499 41.0156 11.1219 35.4006C10.9369 34.2835 10.9746 33.1308 10.9598 31.9936C10.9353 30.2205 10.9533 28.4473 10.9533 26.7005C10.0809 26.4591 9.24617 26.2796 8.45072 26.0027C3.78439 24.3781 0.628775 20.1758 0.499474 15.4938C0.470013 14.4061 0.895563 13.5984 1.8907 13.0337C2.06092 12.9378 2.19185 12.6453 2.19513 12.4411C2.22132 11.0316 2.20495 9.62203 2.20986 8.21249C2.21968 5.24179 3.81713 3.27988 6.8549 2.4583C7.0153 2.41498 7.20189 2.16123 7.21826 1.99103C7.30337 1.11375 7.7371 0.459262 8.61112 0.188494C9.55551 -0.103935 10.5572 -0.122502 11.2954 0.61708C11.6423 0.96521 11.8682 1.50984 11.9402 1.99413C12.0483 2.71359 11.9861 3.45782 11.9681 4.19121C11.937 5.41663 11.1251 6.18561 9.81411 6.25987C8.37052 6.34033 7.43103 5.66728 7.24444 4.41711C7.22971 4.32273 7.21007 4.22989 7.18225 4.0829C6.32951 4.2268 5.65191 4.6167 5.07905 5.18299C4.36052 5.89472 3.95298 6.74416 3.94152 7.7344C3.92352 9.33734 3.92515 10.9387 3.93825 12.5417C3.93825 12.7026 4.03809 12.9455 4.16739 13.0089C5.26564 13.5474 5.62735 14.4463 5.66664 15.5418C5.72392 17.1509 6.36388 18.5434 7.51451 19.7209C8.75842 20.9927 10.2986 21.7416 12.1317 21.8406C13.9452 21.9396 15.7751 22.0294 17.4642 21.1846C19.8767 19.9777 21.2172 18.0885 21.3744 15.5062C21.4398 14.4216 21.7999 13.5613 22.8507 13.0182C22.9849 12.9486 23.0978 12.7212 23.0978 12.5649C23.1109 10.9047 23.1387 9.24296 23.0831 7.58431C23.0274 5.88389 21.5102 4.29178 19.8506 4.12004H19.8538ZM31.617 35.0278C31.5876 35.1407 31.563 35.232 31.5401 35.3248C30.5482 39.3786 26.476 42.1868 22.2565 41.7273C17.6884 41.2306 14.4051 37.8159 14.3839 33.5254C14.3724 31.073 14.3806 28.6206 14.3839 26.1682C14.3839 25.4039 14.6245 25.1532 15.397 25.0743C17.6361 24.8453 19.6181 24.0408 21.2892 22.6158C23.5545 20.6833 24.7509 18.2649 24.8197 15.3685C24.836 14.6893 24.3647 14.2746 23.7705 14.4324C23.2173 14.5794 23.1306 15.0018 23.1011 15.4783C22.8851 18.9689 21.0536 21.4213 17.713 22.868C15.924 23.6431 14.0074 23.5488 12.1088 23.4729C10.4754 23.408 8.98593 22.8974 7.66836 21.9953C5.36384 20.4187 4.09865 18.2835 3.94807 15.5836C3.92352 15.1534 3.92515 14.7171 3.43577 14.4881C2.79417 14.1879 2.21641 14.6444 2.22623 15.4412C2.28351 20.3336 6.41626 24.5808 11.6014 25.0743C12.4231 25.1532 12.6669 25.3993 12.6686 26.1853C12.6718 27.8269 12.6571 29.4685 12.6735 31.1086C12.6866 32.3619 12.6244 33.629 12.7913 34.8653C13.4117 39.4761 17.3496 42.9636 22.2746 43.3596C27.0063 43.7403 31.4566 40.9351 32.9444 36.623C33.1179 36.1217 33.221 35.5987 33.37 35.0293H31.6203L31.617 35.0278ZM28.4499 29.4345C28.4368 31.6254 30.2749 33.4062 32.5598 33.4155C34.8872 33.4248 36.7842 31.6594 36.794 29.4716C36.8038 27.3132 34.9298 25.5385 32.6318 25.5292C30.3191 25.5184 28.463 27.2529 28.4499 29.4345ZM18.0878 3.16229C18.0878 2.85439 18.078 2.54649 18.0911 2.24014C18.1091 1.81774 17.8963 1.66456 17.4626 1.66147C17.019 1.65683 16.7571 1.78061 16.762 2.24168C16.7686 2.81881 16.7751 3.39593 16.7588 3.9715C16.7457 4.42484 16.929 4.64919 17.4331 4.64765C17.9372 4.64765 18.1287 4.42949 18.0927 3.96995C18.0714 3.70228 18.0894 3.43151 18.0878 3.16229ZM10.2609 3.14218C10.2609 2.83428 10.2544 2.52792 10.2626 2.22002C10.274 1.78989 10.0351 1.65992 9.6128 1.66147C9.20361 1.66147 8.9401 1.76359 8.94337 2.203C8.94828 2.79869 8.9581 3.39438 8.93846 3.98852C8.9221 4.45579 9.13323 4.65229 9.62425 4.6461C10.0907 4.63991 10.2871 4.44032 10.2642 4.00554C10.2478 3.71775 10.2609 3.42997 10.2593 3.14218H10.2609Z" fill="#274084"/>
<path d="M32.5767 31.4639C31.4212 31.453 30.4801 30.5541 30.4817 29.4633C30.4817 28.3524 31.4555 27.4565 32.6455 27.4689C33.8124 27.4813 34.7339 28.3663 34.7306 29.4695C34.7274 30.5959 33.7764 31.4747 32.5767 31.4639Z" fill="#274084"/>
</g>
<defs>
<clipPath id="clip0_1_468">
<rect width="38" height="45" fill="white" transform="translate(0.5)"/>
</clipPath>
</defs>
</svg>
