<svg width="32" height="37" viewBox="0 0 32 37" fill="none" xmlns="http://www.w3.org/2000/svg">
<g clip-path="url(#clip0_1_484)">
<path d="M31.9917 14.7938C31.9917 17.6519 32.0105 20.5099 31.9744 23.3664C31.9681 23.891 31.8299 24.4676 31.5817 24.9274C30.1932 27.4947 28.2141 29.5597 25.9775 31.3876C23.1125 33.7291 19.9067 35.4891 16.503 36.8921C16.2548 36.9948 15.9014 37.0437 15.6658 36.9474C10.6159 34.8824 6.02006 32.127 2.4577 27.8818C1.64251 26.9102 0.981238 25.8026 0.302693 24.722C0.107926 24.4107 0.0152541 23.9826 0.0136834 23.6081C-0.00516511 17.7151 -0.000452994 11.822 -0.000452994 5.92892C-0.000452994 5.1437 0.123633 4.97307 0.857153 4.73924C5.7232 3.18145 10.5861 1.61891 15.4569 0.0816546C15.7867 -0.0226197 16.203 -0.0289394 16.5312 0.073755C21.402 1.61101 26.2633 3.17987 31.1325 4.72186C31.7561 4.91935 32.0058 5.26851 32.0011 5.92418C31.9807 8.88019 31.9917 11.8362 31.9917 14.7938ZM30.3456 6.23226C30.1555 6.16274 30.0283 6.11219 29.8979 6.07111C25.4418 4.6476 20.9873 3.21936 16.5249 1.8164C16.1982 1.71371 15.7851 1.72002 15.4569 1.82272C11.0322 3.2162 6.6185 4.64287 2.19382 6.03635C1.75717 6.1738 1.63465 6.35391 1.63622 6.80419C1.6535 11.634 1.76345 16.4669 1.59538 21.2904C1.51999 23.4691 2.20796 25.1422 3.59018 26.6637C3.62945 26.7079 3.66715 26.7538 3.70484 26.798C6.98605 30.634 11.1217 33.2346 15.7082 35.1747C15.9061 35.2584 16.2077 35.2221 16.4166 35.1336C18.7302 34.1493 20.9481 32.9818 23.0104 31.533C25.7795 29.5881 28.2848 27.3715 29.9906 24.3791C30.2011 24.0094 30.3299 23.5371 30.3315 23.1105C30.355 17.9062 30.3456 12.7036 30.3456 7.49935V6.23226Z" fill="#274084"/>
<path d="M16.0024 13.0808C16.8647 12.2181 17.8574 11.7046 19.0433 11.6399C20.8527 11.5419 22.5161 12.5388 23.2842 14.1646C24.0695 15.8251 23.8104 17.7636 22.5208 19.1034C20.5983 21.0988 18.6286 23.0484 16.6699 25.0075C16.172 25.5052 15.7919 25.4783 15.2563 24.9412C13.3824 23.0626 11.5023 21.192 9.64573 19.2946C7.86455 17.4745 7.81272 14.7871 9.4918 13.0223C11.2054 11.2196 13.8646 11.1596 15.7731 12.8801C15.8312 12.9322 15.8909 12.9828 16.0039 13.0808H16.0024ZM15.9615 23.2712C17.8024 21.4511 19.6543 19.6927 21.4166 17.8474C22.4407 16.7762 22.2993 15.0778 21.2517 14.0571C20.1836 13.0176 18.5296 12.9986 17.4207 14.0192C17.1459 14.272 16.8993 14.5548 16.6228 14.8044C16.205 15.1852 15.7856 15.1852 15.3694 14.8092C15.1071 14.5722 14.8715 14.3052 14.6139 14.065C13.4971 13.0255 11.8651 13.0239 10.7876 14.0571C9.68814 15.1125 9.57348 16.822 10.6416 17.9358C12.3803 19.7511 14.1882 21.4985 15.96 23.2696L15.9615 23.2712Z" fill="#274084"/>
</g>
<defs>
<clipPath id="clip0_1_484">
<rect width="32" height="37" fill="white"/>
</clipPath>
</defs>
</svg>
