<svg width="48" height="47" viewBox="0 0 48 47" fill="none" xmlns="http://www.w3.org/2000/svg">
<g clip-path="url(#clip0_1_473)">
<path d="M46.522 39.4331C45.7488 38.4329 44.6082 37.7725 43.3948 37.6227C42.7058 37.5363 42.2599 37.16 42.0724 36.5054C40.926 32.5295 39.7911 28.6401 38.7021 24.9464C38.4418 24.0672 38.8763 23.5431 39.2877 23.257C41.0351 22.0437 41.9805 20.4042 42.1815 18.2464C42.3748 16.1673 41.4791 14.0958 39.7872 12.7021C38.0954 11.3064 35.8945 10.8284 33.8984 11.4216C30.2583 12.5005 28.2985 16.0617 29.3396 19.7035C29.5406 20.4042 29.33 20.9878 28.7329 21.391C27.887 21.9592 27.0315 22.5505 26.2067 23.1226L23.5503 24.9503C23.2019 25.1902 22.7388 25.171 22.4096 24.9061L22.2948 24.814C22.2087 24.7448 22.1321 24.6853 22.0594 24.622C20.113 22.9479 17.9561 22.2799 15.4624 22.5793C14.9303 22.6446 14.2203 22.5256 13.8682 21.6003C12.9514 19.2024 11.8605 16.3593 10.7122 13.4566C10.2721 12.3431 10.984 11.7384 11.2194 11.5406C12.8098 10.1891 13.5964 8.46129 13.5543 6.40521C13.4892 3.28557 11.1754 0.571007 8.17067 0.0910621C4.92671 -0.425358 2.00237 1.289 0.892344 4.36257C0.777514 4.68509 0.693305 5.04025 0.605269 5.41461C0.57082 5.56243 0.536371 5.71025 0.500008 5.85615V7.23264C0.530629 7.33822 0.568906 7.46877 0.591872 7.61851C1.12583 10.9033 4.12099 13.2972 7.41279 13.0668C8.14196 13.0169 8.65295 13.3606 8.9362 14.0939L8.96491 14.1726C9.97159 16.7912 11.0108 19.5 12.0577 22.1512C12.3888 22.9902 12.1897 23.6736 11.4663 24.1804C10.14 25.1096 9.17543 26.3651 8.60128 27.9125C7.097 31.9594 8.59362 36.1618 12.3218 38.3676C14.3064 39.5425 16.7657 39.7882 19.0681 39.0414C21.3761 38.2946 23.2287 36.6494 24.155 34.53C25.11 32.3472 25.1942 30.2354 24.4115 28.0737C24.0708 27.133 24.5263 26.5821 24.9665 26.2845C26.4344 25.2939 27.9789 24.2303 29.8315 22.9345C30.1128 22.7387 30.3999 22.6388 30.6831 22.6388C30.9932 22.6388 31.2994 22.756 31.5922 22.9921C32.6831 23.8675 33.9596 24.3359 35.3816 24.3858C36.1816 24.4127 36.6983 24.814 36.9184 25.578C38.0973 29.6768 39.2609 33.6507 40.2447 36.9988C40.4399 37.6688 40.2848 38.2178 39.77 38.6767C38.2045 40.0704 37.7184 41.683 38.2811 43.6067C38.8456 45.5322 40.1547 46.6572 42.17 46.9509C43.4025 47.1295 44.6178 46.8165 45.5938 46.0717C46.6273 45.2845 47.2914 44.102 47.4656 42.7428C47.6129 41.5851 47.278 40.4102 46.522 39.4331ZM7.07021 11.1855H7.00705C5.82047 11.1855 4.6894 10.7132 3.81477 9.85313C2.92675 8.97771 2.41384 7.77785 2.4081 6.55879V6.53768C2.4081 5.32054 2.89039 4.16483 3.76693 3.28365C4.64921 2.3948 5.80899 1.90525 7.03385 1.90525H7.03576C8.2453 1.90525 9.43954 2.41207 10.3122 3.29517C11.1926 4.18787 11.6711 5.34741 11.6615 6.56647C11.6405 9.07754 9.57925 11.149 7.07021 11.1855ZM16.5016 37.5536H16.4786C14.7294 37.5536 13.0854 36.8721 11.8491 35.6338C10.6089 34.3917 9.92757 32.7369 9.92948 30.9745C9.93522 27.3653 12.8653 24.4204 16.4595 24.4089H16.4805C18.226 24.4089 19.8719 25.0923 21.112 26.3344C22.356 27.5784 23.0393 29.2314 23.0393 30.988C23.0354 34.5971 20.1034 37.5421 16.5016 37.5536ZM35.64 22.491H35.6017C33.0467 22.4661 30.9625 20.3639 30.9568 17.8048C30.9491 15.24 33.0257 13.1321 35.5864 13.1072C35.6017 13.1052 35.617 13.1052 35.6323 13.1052C36.8552 13.1052 38.015 13.589 38.905 14.4683C39.8064 15.3591 40.304 16.5378 40.3097 17.7837C40.3135 19.0086 39.8045 20.2218 38.9126 21.1107C38.0323 21.988 36.8419 22.491 35.64 22.491ZM44.746 44.2728C44.214 44.8065 43.5135 45.1003 42.7767 45.1003H42.7652C42.0303 45.0964 41.3068 44.7873 40.7805 44.2498C40.2504 43.7065 39.9633 42.9981 39.9729 42.2551C39.9939 40.7404 41.2379 39.4926 42.746 39.4734H42.7805C43.5077 39.4734 44.1986 39.7594 44.7307 40.2854C45.2666 40.8134 45.5747 41.541 45.5766 42.2782C45.5785 43.025 45.2838 43.7334 44.746 44.2728Z" fill="#274084"/>
</g>
<defs>
<clipPath id="clip0_1_473">
<rect width="47" height="47" fill="white" transform="translate(0.500008)"/>
</clipPath>
</defs>
</svg>
