<svg width="33" height="44" viewBox="0 0 33 44" fill="none" xmlns="http://www.w3.org/2000/svg">
<g clip-path="url(#clip0_1_477)">
<path d="M32.9964 39.2358C32.9934 42.1262 31.1919 43.992 28.3777 43.9951C20.4523 44.0014 12.5268 44.003 4.60135 43.9951C1.80096 43.992 0.00411646 42.1513 0.002582 39.2907C-0.00202136 28.8368 -0.000486909 18.3829 -0.000486909 7.9305C-0.000486909 5.12793 1.32835 3.5305 4.03667 3.06288C4.09191 3.05346 4.14715 3.03463 4.27451 3.00168C4.20852 2.05546 4.31133 1.09669 5.16909 0.523935C5.59414 0.239912 6.15268 0.0312105 6.65291 0.0280722C8.01397 0.0202262 8.76279 1.00254 9.01137 2.97971H10.9248C10.8849 2.00996 10.9709 1.0402 11.8348 0.47686C12.2767 0.191268 12.8598 0.00296518 13.38 -0.000173198C14.7119 -0.00958832 15.364 0.925647 15.5773 2.98128H17.5C17.4371 2.00368 17.5644 1.04961 18.4176 0.484706C18.8549 0.195975 19.438 0.00453436 19.9566 -0.000173198C21.2824 -0.00958832 21.9253 0.917801 22.1402 2.98285H24.1089C24.0935 2.01152 24.1564 1.03078 25.0342 0.473721C25.4776 0.191268 26.0576 0.00296518 26.5778 -0.000173198C27.8898 -0.00801913 28.5158 0.894263 28.7675 2.94519C29.2646 3.07229 29.7772 3.15075 30.2513 3.33592C31.9576 4.00596 32.9918 5.6285 32.9949 7.6198C33.0026 11.8676 32.9995 36.4552 32.9949 39.2342L32.9964 39.2358ZM31.3899 16.0291C31.3899 13.2296 31.3975 10.4302 31.3868 7.63235C31.3807 5.97686 30.2252 4.72622 28.7813 4.77486C28.4637 6.75361 27.7655 7.59155 26.4213 7.60881C25.1093 7.62608 24.3498 6.7285 23.9984 4.73406H22.1448C21.9284 6.65004 21.1965 7.61195 19.863 7.58214C19.3613 7.57115 18.8119 7.35147 18.3808 7.07058C17.5828 6.54961 17.4094 5.67087 17.4601 4.73563H15.542C15.1876 6.78499 14.5063 7.65432 13.1882 7.58371C12.6864 7.55703 12.1417 7.32636 11.7197 7.03449C10.9402 6.49783 10.7775 5.61908 10.8374 4.70268H8.96227C8.66151 6.72536 7.93572 7.57272 6.54703 7.54605C5.2182 7.52094 4.4479 6.58884 4.2254 4.70582C2.69095 4.70896 1.61069 5.93449 1.61069 7.67158C1.60609 18.2228 1.60609 28.7724 1.61069 39.3237C1.61069 41.2318 2.70783 42.3506 4.57986 42.3522C12.5237 42.3569 20.4691 42.3569 28.4146 42.3522C30.2636 42.3522 31.3853 41.1973 31.3899 39.3142C31.3945 37.1221 31.3899 18.1443 31.3899 16.0306V16.0291ZM13.8572 3.81609C13.8572 3.81609 13.8526 3.81609 13.8495 3.81609C13.8495 3.30924 13.8695 2.79926 13.8434 2.29398C13.8219 1.86716 13.5135 1.67886 13.1452 1.6616C12.7739 1.64433 12.5069 1.86873 12.4992 2.25789C12.4792 3.25275 12.4762 4.24919 12.5053 5.24405C12.5176 5.67558 12.8107 5.92665 13.2281 5.91566C13.6316 5.90468 13.8434 5.6285 13.8541 5.22051C13.8664 4.75289 13.8572 4.28371 13.8572 3.81452V3.81609ZM27.0489 3.81138C27.0489 3.81138 27.0489 3.81138 27.0504 3.81138C27.0504 3.34376 27.0504 2.87772 27.0504 2.4101C27.0504 1.97073 26.8341 1.6867 26.4152 1.6616C25.9947 1.63649 25.7062 1.90953 25.6924 2.3285C25.6602 3.29983 25.6587 4.27586 25.6924 5.24719C25.7062 5.66773 25.9932 5.93449 26.4167 5.90625C26.8034 5.88114 27.0397 5.62693 27.0489 5.21267C27.0581 4.74505 27.0504 4.279 27.0504 3.81138H27.0489ZM7.19457 3.78471C7.19457 3.31709 7.20071 2.84947 7.19304 2.38185C7.1869 1.94091 6.95213 1.66473 6.53169 1.66003C6.11125 1.65375 5.84579 1.93934 5.83505 2.36145C5.8105 3.31552 5.8105 4.27115 5.83505 5.22522C5.84579 5.65361 6.12506 5.9188 6.5409 5.91723C6.97515 5.91566 7.18383 5.61752 7.19304 5.18756C7.20225 4.71994 7.19457 4.25232 7.19457 3.78471ZM19.0789 3.77372C19.0789 4.26017 19.0697 4.74662 19.082 5.23307C19.0927 5.65204 19.3459 5.88114 19.7295 5.91409C20.1392 5.94861 20.4062 5.68656 20.42 5.29583C20.4553 4.30411 20.4523 3.31081 20.4277 2.32065C20.417 1.92365 20.1469 1.65689 19.7572 1.6616C19.3429 1.6663 19.0927 1.93307 19.0805 2.37244C19.0682 2.84005 19.0774 3.3061 19.0805 3.77372H19.0789Z" fill="#274084"/>
<path d="M10.9115 14.37C10.9253 11.6176 13.6965 9.86797 16.1317 11.0558C16.3281 11.1516 16.6427 11.1563 16.8376 11.0621C18.4349 10.2854 20.307 10.7185 21.3765 12.1433C22.426 13.543 22.3708 15.5045 21.1524 16.8289C19.842 18.2521 18.4656 19.6142 17.1046 20.9888C16.6672 21.4297 16.2453 21.414 15.8049 20.9668C14.5159 19.6566 13.2255 18.3463 11.9519 17.0203C11.2506 16.2906 10.9054 15.3978 10.91 14.37H10.9115ZM16.5215 19.2643C17.6769 18.0889 18.8339 16.9481 19.9448 15.7634C20.6875 14.9725 20.6553 13.7847 19.9464 12.9938C19.239 12.2061 18.0973 12.1056 17.2411 12.7568C16.5184 13.3076 16.4156 13.3076 15.7021 12.7615C14.8642 12.1213 13.761 12.1966 13.0352 12.9451C12.3094 13.6921 12.2158 14.8611 12.9462 15.6536C14.0847 16.8869 15.3046 18.0434 16.5199 19.2643H16.5215Z" fill="#274084"/>
<path d="M16.85 26.0489C19.7608 26.0489 22.6701 26.0489 25.581 26.0489C25.8158 26.0489 26.0582 26.0301 26.2823 26.074C26.7733 26.1698 27.0433 26.4444 27.051 26.8712C27.0587 27.298 26.7978 27.5773 26.3129 27.6903C26.1365 27.7311 25.9401 27.7201 25.7529 27.7201C19.7915 27.7201 13.8301 27.7201 7.86878 27.7201C7.84577 27.7201 7.82122 27.7201 7.7982 27.7201C6.98494 27.7107 6.53534 27.4204 6.5246 26.8963C6.51386 26.369 6.96652 26.0568 7.76598 26.0474C8.23552 26.0427 8.70506 26.0474 9.17461 26.0474C11.7325 26.0474 14.2905 26.0474 16.85 26.0474V26.0489Z" fill="#274084"/>
<path d="M15.1405 35.444C12.7007 35.444 10.2609 35.4409 7.82113 35.4456C7.29328 35.4456 6.83294 35.3546 6.60584 34.9073C6.368 34.4381 6.66108 33.9282 7.25952 33.7964C7.52651 33.7383 7.81652 33.7383 8.09579 33.7383C12.7882 33.7352 17.4805 33.7367 22.1729 33.7367C22.2665 33.7367 22.3601 33.7367 22.4537 33.7367C23.2884 33.754 23.7779 34.0851 23.7534 34.617C23.7304 35.1333 23.2639 35.4409 22.4598 35.4424C20.02 35.4471 17.5803 35.444 15.1405 35.444Z" fill="#274084"/>
</g>
<defs>
<clipPath id="clip0_1_477">
<rect width="33" height="44" fill="white"/>
</clipPath>
</defs>
</svg>
