<svg width="42" height="36" viewBox="0 0 42 36" fill="none" xmlns="http://www.w3.org/2000/svg">
<path d="M17.0666 0.958253L10.6866 25.3783L8.9266 17.1283C11.4933 17.1283 13.6199 17.9349 15.3066 19.5483C16.9933 21.1616 17.8366 23.3249 17.8366 26.0383C17.8366 28.7516 16.9933 30.9516 15.3066 32.6383C13.6199 34.2516 11.5299 35.0583 9.0366 35.0583C6.3966 35.0583 4.23327 34.2149 2.5466 32.5283C0.859934 30.8416 0.0166011 28.6783 0.0166016 26.0383C0.0166017 25.1583 0.0532685 24.3516 0.126602 23.6183C0.273269 22.8116 0.529935 21.8582 0.896602 20.7583C1.26327 19.6583 1.7766 18.2649 2.4366 16.5783L8.26661 0.958252L17.0666 0.958253ZM40.3866 0.958258L34.0066 25.3783L32.2466 17.1283C34.8133 17.1283 36.9399 17.9349 38.6266 19.5483C40.3133 21.1616 41.1566 23.3249 41.1566 26.0383C41.1566 28.7516 40.3133 30.9516 38.6266 32.6383C36.9399 34.2516 34.8499 35.0583 32.3566 35.0583C29.7166 35.0583 27.5533 34.2149 25.8666 32.5283C24.1799 30.8416 23.3366 28.6783 23.3366 26.0383C23.3366 25.1583 23.3733 24.3516 23.4466 23.6183C23.5933 22.8116 23.8499 21.8583 24.2166 20.7583C24.5833 19.6583 25.0966 18.2649 25.7566 16.5783L31.5866 0.958256L40.3866 0.958258Z" fill="url(#paint0_linear_1_408)"/>
<defs>
<linearGradient id="paint0_linear_1_408" x1="0.0166016" y1="0.958252" x2="41.1566" y2="0.958252" gradientUnits="userSpaceOnUse">
<stop stop-color="#C5A690"/>
<stop offset="0.324234" stop-color="#E2CAB6"/>
<stop offset="0.635417" stop-color="#D8BCAB"/>
<stop offset="0.916667" stop-color="#C08E7B"/>
</linearGradient>
</defs>
</svg>
