<svg width="165" height="30" viewBox="0 0 165 30" fill="none" xmlns="http://www.w3.org/2000/svg">
<path d="M13.9242 2.28037C14.2631 1.45166 15.4366 1.45166 15.7755 2.28037L19.7105 11.9042C19.7447 11.9879 19.7902 12.0666 19.8455 12.1381L26.2125 20.3579C26.7608 21.0657 26.174 22.082 25.2869 21.9611L14.9849 20.557C14.8953 20.5448 14.8044 20.5448 14.7148 20.557L4.4128 21.9611C3.52569 22.082 2.93892 21.0657 3.48718 20.3579L9.85418 12.1381C9.90956 12.0666 9.95499 11.9879 9.98922 11.9042L13.9242 2.28037Z" fill="url(#paint0_linear_1_412)"/>
<path d="M47.6239 2.28037C47.9628 1.45166 49.1363 1.45166 49.4752 2.28037L53.4102 11.9042C53.4444 11.9879 53.4899 12.0666 53.5452 12.1381L59.9122 20.3579C60.4605 21.0657 59.8737 22.082 58.9866 21.9611L48.6846 20.557C48.595 20.5448 48.5041 20.5448 48.4145 20.557L38.1125 21.9611C37.2254 22.082 36.6386 21.0657 37.1869 20.3579L43.5539 12.1381C43.6093 12.0666 43.6547 11.9879 43.6889 11.9042L47.6239 2.28037Z" fill="url(#paint1_linear_1_412)"/>
<path d="M81.3237 2.28037C81.6625 1.45166 82.8361 1.45166 83.1749 2.28037L87.1099 11.9042C87.1442 11.9879 87.1896 12.0666 87.245 12.1381L93.612 20.3579C94.1602 21.0657 93.5735 22.082 92.6863 21.9611L82.3843 20.557C82.2947 20.5448 82.2039 20.5448 82.1142 20.557L71.8122 21.9611C70.9251 22.082 70.3383 21.0657 70.8866 20.3579L77.2536 12.1381C77.309 12.0666 77.3544 11.9879 77.3887 11.9042L81.3237 2.28037Z" fill="url(#paint2_linear_1_412)"/>
<path d="M115.023 2.28037C115.362 1.45166 116.536 1.45166 116.875 2.28037L120.81 11.9042C120.844 11.9879 120.889 12.0666 120.945 12.1381L127.312 20.3579C127.86 21.0657 127.273 22.082 126.386 21.9611L116.084 20.557C115.994 20.5448 115.904 20.5448 115.814 20.557L105.512 21.9611C104.625 22.082 104.038 21.0657 104.586 20.3579L110.953 12.1381C111.009 12.0666 111.054 11.9879 111.088 11.9042L115.023 2.28037Z" fill="url(#paint3_linear_1_412)"/>
<path d="M148.723 2.28037C149.062 1.45166 150.235 1.45166 150.574 2.28037L154.509 11.9042C154.544 11.9879 154.589 12.0666 154.644 12.1381L161.011 20.3579C161.56 21.0657 160.973 22.082 160.086 21.9611L149.784 20.557C149.694 20.5448 149.603 20.5448 149.514 20.557L139.212 21.9611C138.325 22.082 137.738 21.0657 138.286 20.3579L144.653 12.1381C144.708 12.0666 144.754 11.9879 144.788 11.9042L148.723 2.28037Z" fill="url(#paint4_linear_1_412)"/>
<defs>
<linearGradient id="paint0_linear_1_412" x1="0" y1="0.0166016" x2="29.6997" y2="0.0166016" gradientUnits="userSpaceOnUse">
<stop stop-color="#C5A690"/>
<stop offset="0.324234" stop-color="#E2CAB6"/>
<stop offset="0.635417" stop-color="#D8BCAB"/>
<stop offset="0.916667" stop-color="#C08E7B"/>
</linearGradient>
<linearGradient id="paint1_linear_1_412" x1="33.6997" y1="0.0166016" x2="63.3994" y2="0.0166016" gradientUnits="userSpaceOnUse">
<stop stop-color="#C5A690"/>
<stop offset="0.324234" stop-color="#E2CAB6"/>
<stop offset="0.635417" stop-color="#D8BCAB"/>
<stop offset="0.916667" stop-color="#C08E7B"/>
</linearGradient>
<linearGradient id="paint2_linear_1_412" x1="67.3994" y1="0.0166016" x2="97.0991" y2="0.0166016" gradientUnits="userSpaceOnUse">
<stop stop-color="#C5A690"/>
<stop offset="0.324234" stop-color="#E2CAB6"/>
<stop offset="0.635417" stop-color="#D8BCAB"/>
<stop offset="0.916667" stop-color="#C08E7B"/>
</linearGradient>
<linearGradient id="paint3_linear_1_412" x1="101.099" y1="0.0166016" x2="130.799" y2="0.0166016" gradientUnits="userSpaceOnUse">
<stop stop-color="#C5A690"/>
<stop offset="0.324234" stop-color="#E2CAB6"/>
<stop offset="0.635417" stop-color="#D8BCAB"/>
<stop offset="0.916667" stop-color="#C08E7B"/>
</linearGradient>
<linearGradient id="paint4_linear_1_412" x1="134.799" y1="0.0166016" x2="164.499" y2="0.0166016" gradientUnits="userSpaceOnUse">
<stop stop-color="#C5A690"/>
<stop offset="0.324234" stop-color="#E2CAB6"/>
<stop offset="0.635417" stop-color="#D8BCAB"/>
<stop offset="0.916667" stop-color="#C08E7B"/>
</linearGradient>
</defs>
</svg>
